# xmcd
#
# Track frame offsets: 
#        150
#        16070
#        29485
#        44752
#        60695
#        74977
#        87600
#        100452
#        116220
#        133095
#        147305
#        162397
#        176100
#        188772
#        205650
#
# Disc length: 2929 seconds
#
# Revision: 2
# Processed by: cddbd v1.5.2PL0 Copyright (c) Steve Scherf et al.
# Submitted via: ExactAudioCopy v1.0b4
#
DISCID=ee0b6f0f
DTITLE=Banda Ovelha Negra - Banda Ovelha Negra - Amor De Rapariga (200
DTITLE=2)
DYEAR=2002
DGENRE=Other
TTITLE0=Amor De Rapariga
TTITLE1=Presa Fácil
TTITLE2=Não Vale A Pena
TTITLE3=Pode Ir Embora
TTITLE4=Eu Nada Sou
TTITLE5=Na Caixa Postal
TTITLE6=Loucuras Na Cama
TTITLE7=Minha Índia
TTITLE8=Me Dê Uma Chance
TTITLE9=Neide
TTITLE10=Só Mais Uma Vez
TTITLE11=Pense E Fale
TTITLE12=Fera Ferida
TTITLE13=Volta Amor
TTITLE14=Não Te Quero Mais
EXTD=
EXTT0=
EXTT1=
EXTT2=
EXTT3=
EXTT4=
EXTT5=
EXTT6=
EXTT7=
EXTT8=
EXTT9=
EXTT10=
EXTT11=
EXTT12=
EXTT13=
EXTT14=
PLAYORDER=
